<svg fill="none" height="24" viewBox="0 0 24 24" width="24" xmlns="http://www.w3.org/2000/svg"><path d="m15.1424.372032c.1953-.195262.5119-.195262.7071.000001l7.7782 7.778177c.1953.19526.1953.51184 0 .70711l-1.0607 1.06066c-.1952.19522-.5118.19522-.7071 0l-.3535-.35356-5.3033 5.30328-1.6679 6.1157c-.2021.7408-1.129.987-1.6719.444l-4.26162-4.2616-4.77297 4.773c-.48816.4881-1.27961.4881-1.76777 0-.48815-.4882-.48815-1.2796 0-1.7678l4.77297-4.7729-4.2616-4.2617c-.54294-.5429-.29678-1.4698.44399-1.67182l6.11571-1.66792 5.30329-5.30331-.3535-.35355c-.1953-.19526-.1953-.51185 0-.70711z" fill="#000"/></svg>